# xmcd
#
# Track frame offsets:
#	150
#	13575
#	25632
#	39047
#	55228
#	72669
#	81822
#	95809
#	115087
#	128248
#	138975
#	147786
#	157002
#
# Disc length: 2500 seconds
#
# Revision: 1
# Processed by: cddbd v1.5.2PL0 Copyright (c) Steve Scherf et al.
# Submitted via: audiograbber 1.83.01
#
DISCID=ab09c20d
DTITLE=James Michael Taylor - unWanted
DYEAR=2008
DGENRE=Country
TTITLE0=You
TTITLE1=He Moved On
TTITLE2=One Small Candle
TTITLE3=Since You Went Away
TTITLE4=The Dust On The Piano
TTITLE5=Where
TTITLE6=Don't Touch Me
TTITLE7=unWanted
TTITLE8=Infatuation Unrequited
TTITLE9=If I Write A Letter
TTITLE10=Changing Of The Ways
TTITLE11=Coma
TTITLE12=Ghost Crabs Of Sausalito
EXTD=
EXTT0=
EXTT1=
EXTT2=
EXTT3=
EXTT4=
EXTT5=
EXTT6=
EXTT7=
EXTT8=
EXTT9=
EXTT10=
EXTT11=
EXTT12=
PLAYORDER=
